<mxfile host="app.diagrams.net" modified="2023-10-31T18:34:51.397Z" agent="Mozilla/5.0 (X11; Linux x86_64) AppleWebKit/537.36 (KHTML, like Gecko) Chrome/114.0.0.0 Safari/537.36" version="22.0.8" etag="rHwMTNP0yk7TUcw3QYp3" type="github">
  <diagram name="PÃ¡gina-1" id="hOz0y4QhQ0DrfAI9c5rI">
    <mxGraphModel>
      <root>
        <mxCell id="0" />
        <mxCell id="1" parent="0" />
      </root>
    </mxGraphModel>
  </diagram>
</mxfile>
